<svg xmlns="http://www.w3.org/2000/svg" class="railroad" width="716" height="892" viewBox="0 0 716 892"><style>svg.railroad{background:#fff;font-family:monospace;font-size:13px}.rr-line{stroke:#334;stroke-width:2;fill:none}.rr-cap{fill:#334}.rr-term{fill:#e8f0ff;stroke:#334;stroke-width:2}.rr-nonterm{fill:#fff7e8;stroke:#334;stroke-width:2}.rr-label{fill:#111;text-anchor:middle;dominant-baseline:middle}.rr-comment{fill:#666;font-style:italic;text-anchor:middle;dominant-baseline:middle}.rr-title{fill:#113;font-weight:bold;font-size:15px}a:hover .rr-nonterm{fill:#ffe6b3;cursor:pointer}</style><g><g id="val"><text class="rr-title" x="16" y="31">val</text><circle class="rr-cap" cx="269.5" cy="42" r="3"/><path class="rr-line" d="M269.5 42V56"/><path class="rr-line" d="M269.5 56V74"/><path class="rr-line" d="M179 74H360"/><path class="rr-line" d="M179 252H360"/><path class="rr-line" d="M269.5 252V270"/><path class="rr-line" d="M179 74V92"/><path class="rr-line" d="M179 92V110"/><path class="rr-line" d="M38 110H320"/><path class="rr-line" d="M38 216H320"/><path class="rr-line" d="M179 216V234"/><path class="rr-line" d="M38 110V128"/><a href="#map"><rect class="rr-nonterm" x="16" y="128" width="44" height="26" rx="4" ry="4"/><text class="rr-label" x="38" y="141">map</text></a><path class="rr-line" d="M38 154V216"/><path class="rr-line" d="M140 110V128"/><rect class="rr-term" x="125" y="128" width="30" height="26" rx="13" ry="13"/><text class="rr-label" x="140" y="141">@</text><path class="rr-line" d="M140 154V172"/><a href="#multisource"><rect class="rr-nonterm" x="86" y="172" width="108" height="26" rx="4" ry="4"/><text class="rr-label" x="140" y="185">multisource</text></a><path class="rr-line" d="M140 198V216"/><path class="rr-line" d="M246 110V128"/><a href="#list"><rect class="rr-nonterm" x="220" y="128" width="52" height="26" rx="4" ry="4"/><text class="rr-label" x="246" y="141">list</text></a><path class="rr-line" d="M246 154V216"/><path class="rr-line" d="M320 110V128"/><rect class="rr-term" x="298" y="128" width="44" height="26" rx="13" ry="13"/><text class="rr-label" x="320" y="141">VAL</text><path class="rr-line" d="M320 154V216"/><path class="rr-line" d="M179 234V252"/><path class="rr-line" d="M360 74V92"/><path class="rr-line" d="M360 92V104"/><path class="rr-line" d="M360 104V252"/><path class="rr-line" d="M269.5 270V288"/><a href="#list"><rect class="rr-nonterm" x="243.5" y="288" width="52" height="26" rx="4" ry="4"/><text class="rr-label" x="269.5" y="301">list</text></a><path class="rr-line" d="M269.5 314V328"/><circle class="rr-cap" cx="269.5" cy="328" r="3"/></g><g id="map"><text class="rr-title" x="16" y="377">map</text><circle class="rr-cap" cx="109" cy="388" r="3"/><path class="rr-line" d="M109 388V402"/><path class="rr-line" d="M109 402V420"/><path class="rr-line" d="M42 420H176"/><path class="rr-line" d="M42 526H176"/><path class="rr-line" d="M109 526V544"/><path class="rr-line" d="M42 420V438"/><a href="#pair"><rect class="rr-nonterm" x="16" y="438" width="52" height="26" rx="4" ry="4"/><text class="rr-label" x="42" y="451">pair</text></a><path class="rr-line" d="M42 464V526"/><path class="rr-line" d="M109 420V438"/><rect class="rr-term" x="94" y="438" width="30" height="26" rx="13" ry="13"/><text class="rr-label" x="109" y="451">{</text><path class="rr-line" d="M109 464V526"/><path class="rr-line" d="M176 420V438"/><rect class="rr-term" x="161" y="438" width="30" height="26" rx="13" ry="13"/><text class="rr-label" x="176" y="451">{</text><path class="rr-line" d="M176 464V482"/><a href="#pair"><rect class="rr-nonterm" x="150" y="482" width="52" height="26" rx="4" ry="4"/><text class="rr-label" x="176" y="495">pair</text></a><path class="rr-line" d="M176 508V526"/><path class="rr-line" d="M109 544V562"/><rect class="rr-term" x="94" y="562" width="30" height="26" rx="13" ry="13"/><text class="rr-label" x="109" y="575">}</text><path class="rr-line" d="M109 588V602"/><circle class="rr-cap" cx="109" cy="602" r="3"/></g><g id="list"><text class="rr-title" x="16" y="651">list</text><circle class="rr-cap" cx="109" cy="662" r="3"/><path class="rr-line" d="M109 662V676"/><path class="rr-line" d="M109 676V694"/><path class="rr-line" d="M42 694H176"/><path class="rr-line" d="M42 800H176"/><path class="rr-line" d="M109 800V818"/><path class="rr-line" d="M42 694V712"/><a href="#elem"><rect class="rr-nonterm" x="16" y="712" width="52" height="26" rx="4" ry="4"/><text class="rr-label" x="42" y="725">elem</text></a><path class="rr-line" d="M42 738V800"/><path class="rr-line" d="M109 694V712"/><rect class="rr-term" x="94" y="712" width="30" height="26" rx="13" ry="13"/><text class="rr-label" x="109" y="725">[</text><path class="rr-line" d="M109 738V800"/><path class="rr-line" d="M176 694V712"/><rect class="rr-term" x="161" y="712" width="30" height="26" rx="13" ry="13"/><text class="rr-label" x="176" y="725">[</text><path class="rr-line" d="M176 738V756"/><a href="#elem"><rect class="rr-nonterm" x="150" y="756" width="52" height="26" rx="4" ry="4"/><text class="rr-label" x="176" y="769">elem</text></a><path class="rr-line" d="M176 782V800"/><path class="rr-line" d="M109 818V836"/><rect class="rr-term" x="94" y="836" width="30" height="26" rx="13" ry="13"/><text class="rr-label" x="109" y="849">]</text><path class="rr-line" d="M109 862V876"/><circle class="rr-cap" cx="109" cy="876" r="3"/></g><g id="pair"><text class="rr-title" x="416" y="31">pair</text><circle class="rr-cap" cx="552.5" cy="42" r="3"/><path class="rr-line" d="M552.5 42V56"/><path class="rr-line" d="M552.5 56V74"/><path class="rr-line" d="M552.5 74V92"/><path class="rr-line" d="M470 92H635"/><path class="rr-line" d="M470 242H635"/><path class="rr-line" d="M552.5 242V260"/><path class="rr-line" d="M470 92V110"/><rect class="rr-term" x="455" y="110" width="30" height="26" rx="13" ry="13"/><text class="rr-label" x="470" y="123">@</text><path class="rr-line" d="M470 136V154"/><a href="#multisource"><rect class="rr-nonterm" x="416" y="154" width="108" height="26" rx="4" ry="4"/><text class="rr-label" x="470" y="167">multisource</text></a><path class="rr-line" d="M470 180V242"/><path class="rr-line" d="M572 92V110"/><rect class="rr-term" x="550" y="110" width="44" height="26" rx="13" ry="13"/><text class="rr-label" x="572" y="123">KEY</text><path class="rr-line" d="M572 136V154"/><rect class="rr-term" x="557" y="154" width="30" height="26" rx="13" ry="13"/><text class="rr-label" x="572" y="167">:</text><path class="rr-line" d="M572 180V198"/><a href="#val"><rect class="rr-nonterm" x="550" y="198" width="44" height="26" rx="4" ry="4"/><text class="rr-label" x="572" y="211">val</text></a><path class="rr-line" d="M572 224V242"/><path class="rr-line" d="M635 92V110"/><rect class="rr-term" x="620" y="110" width="30" height="26" rx="13" ry="13"/><text class="rr-label" x="635" y="123">,</text><path class="rr-line" d="M635 136V242"/><path class="rr-line" d="M552.5 260V278"/><path class="rr-line" d="M552.5 269H675"/><path class="rr-line" d="M552.5 65H675"/><path class="rr-line" d="M675 180V269"/><path class="rr-line" d="M675 65V154"/><rect class="rr-term" x="660" y="154" width="30" height="26" rx="13" ry="13"/><text class="rr-label" x="675" y="167">,</text><path class="rr-line" d="M552.5 278V296"/><rect class="rr-term" x="537.5" y="296" width="30" height="26" rx="13" ry="13"/><text class="rr-label" x="552.5" y="309">]</text><path class="rr-line" d="M552.5 322V336"/><circle class="rr-cap" cx="552.5" cy="336" r="3"/></g><g id="elem"><text class="rr-title" x="416" y="385">elem</text><circle class="rr-cap" cx="550.75" cy="396" r="3"/><path class="rr-line" d="M550.75 396V410"/><path class="rr-line" d="M550.75 410V428"/><path class="rr-line" d="M550.75 428V446"/><path class="rr-line" d="M497.5 446H604"/><path class="rr-line" d="M497.5 668H604"/><path class="rr-line" d="M550.75 668V686"/><path class="rr-line" d="M497.5 446V464"/><path class="rr-line" d="M497.5 464V482"/><path class="rr-line" d="M431 482H564"/><path class="rr-line" d="M431 632H564"/><path class="rr-line" d="M497.5 632V650"/><path class="rr-line" d="M431 482V500"/><rect class="rr-term" x="416" y="500" width="30" height="26" rx="13" ry="13"/><text class="rr-label" x="431" y="513">,</text><path class="rr-line" d="M431 526V632"/><path class="rr-line" d="M494 482V500"/><rect class="rr-term" x="472" y="500" width="44" height="26" rx="13" ry="13"/><text class="rr-label" x="494" y="513">KEY</text><path class="rr-line" d="M494 526V544"/><rect class="rr-term" x="479" y="544" width="30" height="26" rx="13" ry="13"/><text class="rr-label" x="494" y="557">:</text><path class="rr-line" d="M494 570V588"/><a href="#val"><rect class="rr-nonterm" x="472" y="588" width="44" height="26" rx="4" ry="4"/><text class="rr-label" x="494" y="601">val</text></a><path class="rr-line" d="M494 614V632"/><path class="rr-line" d="M564 482V500"/><a href="#val"><rect class="rr-nonterm" x="542" y="500" width="44" height="26" rx="4" ry="4"/><text class="rr-label" x="564" y="513">val</text></a><path class="rr-line" d="M564 526V632"/><path class="rr-line" d="M497.5 650V668"/><path class="rr-line" d="M604 446V464"/><path class="rr-line" d="M604 464V476"/><path class="rr-line" d="M604 476V668"/><path class="rr-line" d="M550.75 686V704"/><path class="rr-line" d="M550.75 695H637"/><path class="rr-line" d="M550.75 419H637"/><path class="rr-line" d="M637 570V695"/><path class="rr-line" d="M637 419V544"/><rect class="rr-term" x="622" y="544" width="30" height="26" rx="13" ry="13"/><text class="rr-label" x="637" y="557">,</text><path class="rr-line" d="M550.75 704V722"/><rect class="rr-term" x="535.75" y="722" width="30" height="26" rx="13" ry="13"/><text class="rr-label" x="550.75" y="735">}</text><path class="rr-line" d="M550.75 748V762"/><circle class="rr-cap" cx="550.75" cy="762" r="3"/></g><g id="multisource"><text class="rr-title" x="416" y="811">multisource</text><circle class="rr-cap" cx="438" cy="822" r="3"/><path class="rr-line" d="M438 822V836"/><a href="#val"><rect class="rr-nonterm" x="416" y="836" width="44" height="26" rx="4" ry="4"/><text class="rr-label" x="438" y="849">val</text></a><path class="rr-line" d="M438 862V876"/><circle class="rr-cap" cx="438" cy="876" r="3"/></g></g></svg>